<svg xmlns="http://www.w3.org/2000/svg" viewBox="0 0 1200 600"><defs><style>.cls-1{fill:#fdc720;}.cls-2,.cls-5,.cls-6,.cls-7{fill:none;stroke:#000;stroke-linecap:round;stroke-linejoin:round;}.cls-2,.cls-7{stroke-width:4px;}.cls-3,.cls-4{stroke:#fff;stroke-miterlimit:10;}.cls-3{stroke-width:0.54479px;}.cls-4{stroke-width:0.47869px;}.cls-5,.cls-6{stroke-width:4.54996px;}.cls-6{stroke-dasharray:13.55296 13.55296;}.cls-7{stroke-dasharray:12;}</style></defs><g id="Layer_1" data-name="Layer 1"><path d="M95.98412,245.18446h6.95166v1.82227H98.24242v2.88769h3.59619v1.79H98.24242v4.75781h-2.2583Z"/><path d="M106.78734,256.44227H104.529v-8.93554h2.2583v1.38769a3.09748,3.09748,0,0,1,2.7417-1.5166v2.3711h-.59668c-1.33886,0-2.145.5166-2.145,2.24218Z"/><path d="M115.01,256.58778a4.61293,4.61293,0,1,1,4.66113-4.61328A4.46748,4.46748,0,0,1,115.01,256.58778Zm0-1.96777a2.37847,2.37847,0,0,0,2.33838-2.64551,2.347,2.347,0,0,0-2.30615-2.64453c-1.19336,0-2.27393.85449-2.27393,2.64453C112.7683,253.74892,113.80053,254.62,115.01,254.62Z"/><path d="M133.82738,251.50673a1.99834,1.99834,0,1,0-3.9834,0v4.93554h-2.2583v-4.93554a2.00578,2.00578,0,1,0-3.99951,0v4.93554h-2.2583v-8.93554h2.2583v1.08105a3.2522,3.2522,0,0,1,2.62891-1.21,3.41964,3.41964,0,0,1,3.145,1.71,3.53658,3.53658,0,0,1,3.06445-1.71,3.47551,3.47551,0,0,1,3.66113,3.82227v5.24218h-2.2583Z"/><path d="M141.4641,245.18446h8.25781v1.82227h-3v9.43554H144.4641v-9.43554h-3Z"/><path d="M151.36352,244.50673h2.2583V248.62a3.43405,3.43405,0,0,1,2.77392-1.24219c2.01612,0,3.48389,1.35547,3.48389,3.82227v5.24218h-2.2583v-4.93554a2.00967,2.00967,0,1,0-3.99951,0v4.93554h-2.2583Z"/><path d="M165.92357,256.58778a4.61464,4.61464,0,0,1,0-9.22558,4.1944,4.1944,0,0,1,4.40284,4.41894,5.28451,5.28451,0,0,1-.06446.8711h-6.53222a2.091,2.091,0,0,0,2.1455,2.06445,1.84141,1.84141,0,0,0,1.79-1.08106h2.43555A4.153,4.153,0,0,1,165.92357,256.58778Zm-2.17773-5.45215H167.988a1.98538,1.98538,0,0,0-2.12891-1.91894A2.07511,2.07511,0,0,0,163.74584,251.13563Z"/><path d="M180.09447,245.18446h2.27442v7.90332a3.2278,3.2278,0,0,1-3.5,3.46778,3.32406,3.32406,0,0,1-3.59668-3.54883H177.53c.0166.95215.45166,1.53222,1.30664,1.53222.83887,0,1.25781-.56445,1.25781-1.45117Z"/><path d="M193.42943,256.44227H191.155v-1.1289a3.29613,3.29613,0,0,1-2.66113,1.24219c-2.08057,0-3.58057-1.35547-3.58057-3.80664v-5.24219h2.25781v4.91992a2.00261,2.00261,0,1,0,3.98389,0v-4.91992h2.27441Z"/><path d="M201.90844,251.50673a2.00967,2.00967,0,1,0-3.99951,0v4.93554h-2.25831v-8.93554h2.25831V248.62a3.33814,3.33814,0,0,1,2.69335-1.24219c2.08057,0,3.56446,1.35547,3.56446,3.82227v5.24218h-2.2583Z"/><path d="M209.80736,247.3622a3.49512,3.49512,0,0,1,2.95166,1.41894v-1.27441H215.033v9a4.084,4.084,0,0,1-4.41895,4.33887c-2.51611,0-4.27441-1.25782-4.5-3.30665h2.2417a2.30837,2.30837,0,0,0,4.40332-1.03222V255.12a3.52608,3.52608,0,0,1-2.95166,1.46777c-2.27392,0-4.08056-1.85547-4.08056-4.64551S207.53344,247.3622,209.80736,247.3622Zm.58057,1.9834a2.38343,2.38343,0,0,0-2.355,2.59667,2.442,2.442,0,0,0,2.355,2.66114,2.64292,2.64292,0,0,0,0-5.25781Z"/><path d="M217.238,244.50673h2.2583v11.93554H217.238Z"/><path d="M225.62328,256.58778a4.61464,4.61464,0,0,1,0-9.22558,4.19439,4.19439,0,0,1,4.40283,4.41894,5.2845,5.2845,0,0,1-.06445.8711h-6.53223a2.09105,2.09105,0,0,0,2.14551,2.06445,1.84093,1.84093,0,0,0,1.79-1.08106h2.43555A4.153,4.153,0,0,1,225.62328,256.58778Zm-2.17725-5.45215h4.2417a1.98536,1.98536,0,0,0-2.1289-1.91894A2.07468,2.07468,0,0,0,223.446,251.13563Z"/><path class="cls-1" d="M196.58994,105.54447H134.15273l-5.51116-9.5467a4.60764,4.60764,0,0,0-7.98063,4.60769l5.51117,9.54669L94.95725,164.22471,128.82979,222.905h67.76015l7.48374-12.97229h.14305v-.24088L230.47,164.22471Zm18.07691,67.62459h-.01507l-5.31541,9.20793h.01508l-2.64266,4.57h-.00753l-5.31541,9.20784h.00754l-2.63512,4.56247h-.00754l-5.32294,9.21537h.00754l-2.16833,3.75692H134.15273v-.00754l-2.16833-3.74938-5.32294-9.21537-2.63512-4.56247-5.3154-9.20784-2.63512-4.57-5.31541-9.20793-2.50713-4.33666-2.57488-4.63783,5.195-9.268.0828.00754,19.12344-33.11965,4.043-7.047h5.34551v-.00754H191.267l23.20409,40.17423.06778-.00754,2.43182,4.33666.2033.35384h-.00754l2.56734,4.57754-2.57487,4.63783h.01507Z"/><path d="M324.90111,487.9745h6.95166v1.82227h-4.69336v2.88769h3.59668v1.79h-3.59668v4.75781h-2.2583Z"/><path d="M333.20434,487.91005a1.38854,1.38854,0,1,1,1.38671,1.32226A1.32361,1.32361,0,0,1,333.20434,487.91005Zm.24169,2.38672h2.25831v8.93554H333.446Z"/><path d="M337.928,487.29677h2.2583v11.93554H337.928Z"/><path d="M342.76488,492.15224h-1.06445v-1.85547h1.06445v-2.209h2.27393v2.209h2v1.85547h-2v4.32226c0,.59668.24219.85449.95166.85449h1.04834v1.90332h-1.41944c-1.70947,0-2.85449-.72558-2.85449-2.77441Z"/><path d="M352.56859,499.37782a4.61464,4.61464,0,0,1,0-9.22558,4.1944,4.1944,0,0,1,4.40284,4.41894,5.28431,5.28431,0,0,1-.06446.87109h-6.53222a2.091,2.091,0,0,0,2.1455,2.06446,1.84141,1.84141,0,0,0,1.79-1.08106h2.43555A4.153,4.153,0,0,1,352.56859,499.37782Zm-2.17773-5.45215h4.24219a1.98538,1.98538,0,0,0-2.12891-1.91894A2.07511,2.07511,0,0,0,350.39086,493.92567Z"/><path d="M360.87084,499.23231h-2.2583v-8.93554h2.2583v1.38769a3.09746,3.09746,0,0,1,2.7417-1.5166V492.539h-.59668c-1.33887,0-2.145.51661-2.145,2.24219Z"/><path d="M368.54516,499.37782c-2.24219,0-3.80664-1.30664-3.90332-2.96777h2.27441a1.48315,1.48315,0,0,0,1.61279,1.19336c.88672,0,1.37061-.40332,1.37061-.91895,0-1.59765-5.04785-.58105-5.04785-3.85547,0-1.48339,1.32226-2.67675,3.53173-2.67675,2.16163,0,3.46778,1.17675,3.59668,2.95117h-2.16113a1.331,1.331,0,0,0-1.5-1.16114c-.83838,0-1.27392.33887-1.27392.8545,0,1.6289,4.95117.61328,5.01611,3.88769C372.06127,498.21669,370.7224,499.37782,368.54516,499.37782Z"/><path d="M383.10424,490.58778a.94679.94679,0,0,0-1-1.09668.96831.96831,0,0,0-1.04834.95117c0,.54883.32226,1.03223,1.03222,1.77442l2.83838,2.80566a.87284.87284,0,0,0,.08057-.1289l.91943-1.53223h2.355l-1.12939,1.98438a13.71091,13.71091,0,0,1-.69336,1.19335l2.72559,2.69336h-2.77393l-1.22559-1.21a5.4826,5.4826,0,0,1-3.82275,1.40332c-2.51611,0-4.16113-1.35449-4.16113-3.45117a3.71637,3.71637,0,0,1,2.48388-3.43555,3.06772,3.06772,0,0,1-.82275-2.08105c0-1.53125,1.24219-2.72559,3.30664-2.72559,2.11279,0,3.20947,1.30664,3.12891,2.85547Zm.66113,6.03125-2.77441-2.74121a2.174,2.174,0,0,0-1.56446,1.96778,1.795,1.795,0,0,0,2,1.709A3.30378,3.30378,0,0,0,383.76537,496.619Z"/><path d="M403.75805,487.95888v11.27343h-2.2583l-5.11231-7.72558v7.72558h-2.2583V487.95888h2.2583l5.11231,7.74121v-7.74121Z"/><path d="M414.4143,499.23231h-2.27442v-1.1289a3.29613,3.29613,0,0,1-2.66113,1.24219c-2.08057,0-3.58057-1.35547-3.58057-3.80665v-5.24218H408.156v4.91992a2.0026,2.0026,0,1,0,3.98388,0v-4.91992h2.27442Z"/><path d="M416.99047,492.15224H415.926v-1.85547h1.06445v-2.209h2.27392v2.209h2v1.85547h-2v4.32226c0,.59668.24219.85449.95166.85449h1.04834v1.90332H419.845c-1.70947,0-2.85449-.72558-2.85449-2.77441Z"/><path d="M425.14916,499.23231h-2.2583v-8.93554h2.2583v1.38769a3.09746,3.09746,0,0,1,2.7417-1.5166V492.539h-.59668c-1.33887,0-2.145.51661-2.145,2.24219Z"/><path d="M429.16234,487.91005a1.38855,1.38855,0,1,1,1.38672,1.32226A1.32362,1.32362,0,0,1,429.16234,487.91005Zm.2417,2.38672h2.2583v8.93554H429.404Z"/><path d="M434.241,492.15224H433.1765v-1.85547H434.241v-2.209h2.27392v2.209h2v1.85547h-2v4.32226c0,.59668.24219.85449.95166.85449h1.04834v1.90332h-1.41943c-1.70947,0-2.85449-.72558-2.85449-2.77441Z"/><path d="M439.89965,487.91005a1.38854,1.38854,0,1,1,1.38672,1.32226A1.32362,1.32362,0,0,1,439.89965,487.91005Zm.2417,2.38672h2.2583v8.93554h-2.2583Z"/><path d="M448.59105,499.37782a4.61293,4.61293,0,1,1,4.66114-4.61328A4.46748,4.46748,0,0,1,448.59105,499.37782Zm0-1.96777a2.37848,2.37848,0,0,0,2.33838-2.64551,2.347,2.347,0,0,0-2.30615-2.64453c-1.19336,0-2.27441.85449-2.27441,2.64453C446.34887,496.539,447.38109,497.41005,448.59105,497.41005Z"/><path d="M461.16674,494.29677a2.00967,2.00967,0,1,0-3.99951,0v4.93554h-2.2583v-8.93554h2.2583v1.11328a3.33815,3.33815,0,0,1,2.69336-1.24219c2.08056,0,3.56445,1.35547,3.56445,3.82227v5.24218h-2.2583Z"/><path d="M474.56371,487.829a5.3047,5.3047,0,0,1,5.29,3.64551h-2.59668a2.838,2.838,0,0,0-2.70947-1.61328c-1.96778,0-3.37061,1.43555-3.37061,3.72656,0,2.27344,1.40283,3.72559,3.37061,3.72559a2.82652,2.82652,0,0,0,2.70947-1.62891h2.59668a5.28529,5.28529,0,0,1-5.29,3.64453,5.75014,5.75014,0,0,1,0-11.5Z"/><path d="M481.78441,487.29677h2.2583v4.11328a3.43409,3.43409,0,0,1,2.77393-1.24219c2.01611,0,3.48389,1.35547,3.48389,3.82227v5.24218h-2.2583v-4.93554a2.00967,2.00967,0,1,0-3.99952,0v4.93554h-2.2583Z"/><path d="M496.34447,499.37782a4.61464,4.61464,0,0,1,0-9.22558,4.19439,4.19439,0,0,1,4.40283,4.41894,5.2843,5.2843,0,0,1-.06445.87109h-6.53223a2.09106,2.09106,0,0,0,2.14551,2.06446,1.84092,1.84092,0,0,0,1.79-1.08106h2.43555A4.153,4.153,0,0,1,496.34447,499.37782Zm-2.17724-5.45215h4.2417a1.98538,1.98538,0,0,0-2.12891-1.91894A2.07467,2.07467,0,0,0,494.16723,493.92567Z"/><path d="M506.22728,490.15224a3.98626,3.98626,0,0,1,4.20948,3.16113h-2.43555a1.75565,1.75565,0,0,0-1.79-1.24219c-1.2583,0-2.09668.95117-2.09668,2.69336s.83838,2.67773,2.09668,2.67773a1.70482,1.70482,0,0,0,1.79-1.22558h2.43555a4.07631,4.07631,0,0,1-4.20948,3.16113,4.617,4.617,0,0,1,0-9.22558Z"/><path d="M512.094,487.29677h2.2583v6.791l2.99952-3.791h2.93554l-3.93554,4.48437,3.96777,4.45117H517.384l-3.03174-3.80664v3.80664H512.094Z"/><path class="cls-1" d="M455.96918,348.33468H393.532l-5.51116-9.5467a4.60763,4.60763,0,1,0-7.98062,4.60769l5.51116,9.54669-31.21486,54.07256L388.209,465.69517h67.76015l7.48374-12.97229h.14305V452.482l26.25329-45.46708Zm18.07691,67.62459H474.031l-5.3154,9.20793h.01507l-2.64266,4.57h-.00753l-5.31541,9.20784h.00754l-2.63512,4.56247H458.13l-5.32295,9.21537h.00754l-2.16833,3.75692H393.532v-.00754l-2.16832-3.74938-5.32295-9.21537-2.63511-4.56247-5.31541-9.20784-2.63512-4.57-5.3154-9.20793-2.50714-4.33666-2.57487-4.63783,5.195-9.268.08281.00754,19.12344-33.11965,4.043-7.047h5.34551v-.00754h51.79886l23.2041,40.17423.06778-.00754,2.43182,4.33666.20329.35384h-.00753l2.56733,4.57754-2.57487,4.63783h.01507Z"/><path d="M668.0017,362.39345h2.41894l1.98389,8.74218,2.29053-8.74218h2.51611l2.16113,8.69336,2-8.69336h2.43506l-3.145,11.25781h-2.66113l-2.11279-8.01563-2.20947,8.01563-2.645.0166Z"/><path d="M688.76879,364.57118a3.53268,3.53268,0,0,1,2.95166,1.41895v-1.27442h2.27392v8.93555h-2.27392v-1.30664a3.52376,3.52376,0,0,1-2.96777,1.45215c-2.25782,0-4.06446-1.85547-4.06446-4.64551S686.49486,364.57118,688.76879,364.57118Zm.58057,1.9834a2.38308,2.38308,0,0,0-2.3545,2.59668,2.44162,2.44162,0,0,0,2.3545,2.66113,2.64292,2.64292,0,0,0,0-5.25781Z"/><path d="M698.45775,373.65126h-2.2583v-8.93555h2.2583v1.3877a3.09748,3.09748,0,0,1,2.7417-1.5166v2.37109h-.59668c-1.33886,0-2.145.5166-2.145,2.24219Z"/><path d="M706.616,373.79677a4.61465,4.61465,0,0,1,0-9.22559,4.1944,4.1944,0,0,1,4.40283,4.41895,5.28438,5.28438,0,0,1-.06445.87109h-6.53223a2.091,2.091,0,0,0,2.14551,2.06445,1.84141,1.84141,0,0,0,1.79-1.08105h2.43554A4.153,4.153,0,0,1,706.616,373.79677Zm-2.17774-5.45215h4.24219a1.98537,1.98537,0,0,0-2.12891-1.91895A2.07512,2.07512,0,0,0,704.43822,368.34462Z"/><path d="M712.6599,361.71571h2.2583V365.829a3.43408,3.43408,0,0,1,2.77393-1.24218c2.01611,0,3.48389,1.35546,3.48389,3.82226v5.24219h-2.25831v-4.93555a2.00967,2.00967,0,1,0-3.99951,0v4.93555h-2.2583Z"/><path d="M727.28441,373.79677a4.61294,4.61294,0,1,1,4.66114-4.61328A4.46748,4.46748,0,0,1,727.28441,373.79677Zm0-1.96778a2.37847,2.37847,0,0,0,2.33838-2.6455,2.347,2.347,0,0,0-2.30615-2.64454c-1.19336,0-2.27393.8545-2.27393,2.64454C725.04271,370.9579,726.07494,371.829,727.28441,371.829Z"/><path d="M742.03783,373.65126h-2.27441v-1.12891a3.29612,3.29612,0,0,1-2.66114,1.24219c-2.08056,0-3.58056-1.35547-3.58056-3.80664v-5.24219h2.25781v4.91992a2.00261,2.00261,0,1,0,3.98389,0v-4.91992h2.27441Z"/><path d="M747.67846,373.79677c-2.24219,0-3.80664-1.30664-3.90332-2.96778h2.27441a1.48315,1.48315,0,0,0,1.61279,1.19336c.88672,0,1.37061-.40332,1.37061-.91894,0-1.59766-5.04785-.58106-5.04785-3.85547,0-1.4834,1.32226-2.67676,3.53174-2.67676,2.16162,0,3.46777,1.17676,3.59668,2.95117h-2.16114a1.331,1.331,0,0,0-1.5-1.16113c-.83838,0-1.27392.33887-1.27392.85449,0,1.62891,4.95117.61328,5.01611,3.8877C751.19457,372.63563,749.8557,373.79677,747.67846,373.79677Z"/><path d="M756.949,373.79677a4.61465,4.61465,0,0,1,0-9.22559,4.1944,4.1944,0,0,1,4.40284,4.41895,5.28439,5.28439,0,0,1-.06446.87109h-6.53222a2.091,2.091,0,0,0,2.1455,2.06445,1.8414,1.8414,0,0,0,1.79-1.08105h2.43555A4.153,4.153,0,0,1,756.949,373.79677Zm-2.17773-5.45215h4.24219a1.98538,1.98538,0,0,0-2.12891-1.91895A2.07512,2.07512,0,0,0,754.77123,368.34462Z"/><path d="M770.97484,369.329h-1.88672v4.32227h-2.2583V362.39345h4.145c2.70948,0,4.06446,1.53222,4.06446,3.4834C775.0393,367.58681,773.87816,369.329,770.97484,369.329Zm-.09668-1.82226c1.27393,0,1.83887-.62988,1.83887-1.62988,0-1.03223-.56494-1.64454-1.83887-1.64454h-1.79v3.27442Z"/><path d="M780.13207,364.57118a3.53268,3.53268,0,0,1,2.95166,1.41895v-1.27442h2.27393v8.93555h-2.27393v-1.30664a3.52376,3.52376,0,0,1-2.96777,1.45215c-2.25782,0-4.06446-1.85547-4.06446-4.64551S777.85814,364.57118,780.13207,364.57118Zm.58057,1.9834a2.38308,2.38308,0,0,0-2.3545,2.59668,2.44162,2.44162,0,0,0,2.3545,2.66113,2.64292,2.64292,0,0,0,0-5.25781Z"/><path d="M791.4016,364.57118a3.98624,3.98624,0,0,1,4.20947,3.16113h-2.43554a1.75565,1.75565,0,0,0-1.79-1.24218c-1.2583,0-2.09668.95117-2.09668,2.69336s.83838,2.67773,2.09668,2.67773a1.70483,1.70483,0,0,0,1.79-1.22559h2.43554a4.07629,4.07629,0,0,1-4.20947,3.16114,4.617,4.617,0,0,1,0-9.22559Z"/><path d="M797.2683,361.71571h2.2583v6.791l2.99951-3.791h2.93555l-3.93555,4.48438,3.96778,4.45117h-2.93555l-3.03174-3.80664v3.80664h-2.2583Z"/><path d="M806.44213,362.329a1.38854,1.38854,0,1,1,1.38672,1.32227A1.32362,1.32362,0,0,1,806.44213,362.329Zm.2417,2.38672h2.2583v8.93555h-2.2583Z"/><path d="M817.42357,368.71571a2.00967,2.00967,0,1,0-3.99951,0v4.93555h-2.2583v-8.93555h2.2583V365.829a3.33815,3.33815,0,0,1,2.69336-1.24218c2.08057,0,3.56445,1.35546,3.56445,3.82226v5.24219h-2.2583Z"/><path d="M825.3225,364.57118a3.49512,3.49512,0,0,1,2.95166,1.41895v-1.27442h2.27393v9a4.08415,4.08415,0,0,1-4.41944,4.33887c-2.51562,0-4.27392-1.25781-4.49951-3.30664h2.2417a2.30837,2.30837,0,0,0,4.40332-1.03223V372.329a3.5261,3.5261,0,0,1-2.95166,1.46778c-2.27393,0-4.08057-1.85547-4.08057-4.64551S823.04857,364.57118,825.3225,364.57118Zm.58057,1.9834a2.38308,2.38308,0,0,0-2.3545,2.59668,2.44162,2.44162,0,0,0,2.3545,2.66113,2.64292,2.64292,0,0,0,0-5.25781Z"/><path class="cls-1" d="M783.52021,222.75353H721.083l-5.51116-9.54669a4.60763,4.60763,0,1,0-7.98062,4.60769l5.51116,9.54669-31.21486,54.07256L715.76006,340.114h67.76015l7.48374-12.97229h.14305v-.24089l26.25329-45.46707Zm18.07691,67.62459h-.01507l-5.3154,9.20793h.01507l-2.64265,4.57h-.00754l-5.31541,9.20784h.00754l-2.63512,4.56246H785.681l-5.32295,9.21538h.00754l-2.16833,3.75691H721.083v-.00753l-2.16832-3.74938-5.32295-9.21538-2.63511-4.56246-5.31541-9.20784-2.63512-4.57-5.3154-9.20793-2.50714-4.33665-2.57487-4.63783,5.195-9.268.08281.00754,19.12344-33.11965,4.043-7.04705h5.3455v-.00753h51.79886l23.2041,40.17423.06778-.00754,2.43182,4.33666.20329.35383h-.00753l2.56733,4.57755-2.57487,4.63783h.01507Z"/><path d="M996.69506,237.29774c2.71,0,4.06445,1.56446,4.06445,3.45118a3.25049,3.25049,0,0,1-2.56445,3.24218l2.69336,4.56446h-2.6128l-2.48339-4.38672h-1.06446v4.38672h-2.2583V237.29774Zm-.08057,1.8711h-1.88672v3.30664h1.88672c1.2583,0,1.82276-.66211,1.82276-1.67774C998.43725,239.79774,997.87279,239.16884,996.61449,239.16884Z"/><path d="M1006.70727,248.70106a4.61464,4.61464,0,0,1,0-9.22558,4.1944,4.1944,0,0,1,4.40283,4.41894,5.28451,5.28451,0,0,1-.06446.8711h-6.53222a2.091,2.091,0,0,0,2.14551,2.06445,1.84139,1.84139,0,0,0,1.79-1.08105h2.43555A4.153,4.153,0,0,1,1006.70727,248.70106Zm-2.17774-5.45214h4.24219a1.98537,1.98537,0,0,0-2.12891-1.91895A2.07512,2.07512,0,0,0,1004.52953,243.24892Z"/><path d="M1013.10619,241.47548h-1.06445V239.62h1.06445v-2.209h2.27393v2.209h2v1.85547h-2v4.32226c0,.59668.24218.8545.95166.8545h1.04834v1.90332h-1.41944c-1.70947,0-2.85449-.72559-2.85449-2.77442Z"/><path d="M1022.50658,239.47548a3.53269,3.53269,0,0,1,2.95166,1.41894V239.62h2.27393v8.93555h-2.27393v-1.30664a3.52374,3.52374,0,0,1-2.96777,1.45214c-2.25781,0-4.06445-1.85546-4.06445-4.6455S1020.23266,239.47548,1022.50658,239.47548Zm.58057,1.9834a2.38308,2.38308,0,0,0-2.35449,2.59668,2.44162,2.44162,0,0,0,2.35449,2.66113,2.64292,2.64292,0,0,0,0-5.25781Z"/><path d="M1029.69555,237.23329a1.38854,1.38854,0,1,1,1.38672,1.32227A1.32362,1.32362,0,0,1,1029.69555,237.23329Zm.2417,2.38672h2.2583v8.93555h-2.2583Z"/><path d="M1034.41918,236.62h2.2583v11.93555h-2.2583Z"/><path d="M1042.32055,248.70106c-2.24219,0-3.80664-1.30664-3.90332-2.96777h2.27441a1.48315,1.48315,0,0,0,1.61279,1.19336c.88672,0,1.37061-.40332,1.37061-.91895,0-1.59765-5.04785-.58105-5.04785-3.85546,0-1.4834,1.32226-2.67676,3.53174-2.67676,2.16162,0,3.46777,1.17676,3.59668,2.95117h-2.16114a1.331,1.331,0,0,0-1.5-1.16113c-.83838,0-1.27392.33886-1.27392.85449,0,1.62891,4.95117.61328,5.01611,3.88769C1045.83666,247.53993,1044.49779,248.70106,1042.32055,248.70106Z"/><path class="cls-1" d="M1052.84208,95.03306H990.40487l-5.51117-9.5467a4.60763,4.60763,0,0,0-7.98062,4.60769l5.51117,9.54669L951.20939,153.7133l33.87254,58.68025h67.76015l7.48373-12.97229h.143v-.24088l26.25329-45.46708Zm18.07691,67.62459h-.01507l-5.31541,9.20793h.01507l-2.64265,4.57h-.00754l-5.3154,9.20784h.00753l-2.63511,4.56247h-.00754l-5.32294,9.21537h.00753l-2.16832,3.75692H990.40487v-.00754l-2.16833-3.74938-5.32294-9.21537-2.63512-4.56247-5.31541-9.20784-2.63511-4.57-5.31541-9.20793-2.50714-4.33666-2.57487-4.63783,5.195-9.268.08281.00754L986.33175,111.303l4.043-7.047h5.3455v-.00754h51.79887l23.20409,40.17423.06778-.00754,2.43182,4.33666.2033.35384h-.00754l2.56734,4.57754-2.57488,4.63783h.01508Z"/><path d="M951.50512,495.8495a5.30471,5.30471,0,0,1,5.29,3.64551h-2.59668a2.838,2.838,0,0,0-2.70948-1.61328c-1.96777,0-3.3706,1.43554-3.3706,3.72656,0,2.27344,1.40283,3.72559,3.3706,3.72559a2.82652,2.82652,0,0,0,2.70948-1.62891h2.59668a5.28529,5.28529,0,0,1-5.29,3.64453,5.75014,5.75014,0,0,1,0-11.5Z"/><path d="M967.16088,507.25282H964.887v-1.1289a3.29613,3.29613,0,0,1-2.66113,1.24218c-2.08057,0-3.58057-1.35547-3.58057-3.80664v-5.24219h2.25782v4.91993a2.0026,2.0026,0,1,0,3.98388,0v-4.91993h2.27393Z"/><path d="M972.802,507.39833c-2.24219,0-3.80664-1.30664-3.90332-2.96777h2.27442a1.48315,1.48315,0,0,0,1.61279,1.19336c.88672,0,1.3706-.40332,1.3706-.91895,0-1.59766-5.04785-.58105-5.04785-3.85547,0-1.4834,1.32227-2.67676,3.53174-2.67676,2.16162,0,3.46777,1.17676,3.59668,2.95118h-2.16113a1.33105,1.33105,0,0,0-1.5-1.16114c-.83838,0-1.27393.33887-1.27393.85449,0,1.62891,4.95117.61329,5.01612,3.8877C976.31811,506.2372,974.97924,507.39833,972.802,507.39833Z"/><path d="M978.52416,500.17274h-1.06445v-1.85547h1.06445v-2.209h2.27393v2.209h2v1.85547h-2V504.495c0,.59668.24218.85449.95166.85449h1.04834v1.90332h-1.41944c-1.70947,0-2.85449-.72558-2.85449-2.77441Z"/><path d="M988.39232,507.39833a4.61294,4.61294,0,1,1,4.66114-4.61328A4.46748,4.46748,0,0,1,988.39232,507.39833Zm0-1.96777a2.37848,2.37848,0,0,0,2.33838-2.64551,2.347,2.347,0,0,0-2.30615-2.64453c-1.19336,0-2.27441.85449-2.27441,2.64453C986.15014,504.55946,987.18236,505.43056,988.39232,505.43056Z"/><path d="M1007.20971,502.31727a1.99834,1.99834,0,1,0-3.9834,0v4.93555h-2.2583v-4.93555a2.00578,2.00578,0,1,0-3.99951,0v4.93555h-2.2583v-8.93555h2.2583v1.08106a3.25215,3.25215,0,0,1,2.6289-1.21,3.41962,3.41962,0,0,1,3.145,1.71,3.5366,3.5366,0,0,1,3.06445-1.71,3.47551,3.47551,0,0,1,3.66114,3.82226v5.24219h-2.2583Z"/><path d="M1015.50951,507.39833a4.61465,4.61465,0,0,1,0-9.22559,4.1944,4.1944,0,0,1,4.40283,4.419,5.28438,5.28438,0,0,1-.06445.87109h-6.53223a2.09106,2.09106,0,0,0,2.14551,2.06446,1.84141,1.84141,0,0,0,1.79-1.08106h2.43555A4.153,4.153,0,0,1,1015.50951,507.39833Zm-2.17773-5.45215h4.24218a1.98536,1.98536,0,0,0-2.1289-1.91894A2.07511,2.07511,0,0,0,1013.33178,501.94618Z"/><path d="M1023.81176,507.25282h-2.2583v-8.93555h2.2583v1.3877a3.09746,3.09746,0,0,1,2.7417-1.5166v2.37109h-.59668c-1.33887,0-2.145.5166-2.145,2.24219Z"/><path d="M1027.59887,500.05946l.91943-4.06445h2.37109l-1.74218,4.06445Z"/><path d="M1035.91967,507.39833c-2.24219,0-3.80664-1.30664-3.90332-2.96777h2.27441a1.48316,1.48316,0,0,0,1.61279,1.19336c.88672,0,1.37061-.40332,1.37061-.91895,0-1.59766-5.04785-.58105-5.04785-3.85547,0-1.4834,1.32226-2.67676,3.53174-2.67676,2.16162,0,3.46777,1.17676,3.59668,2.95118h-2.16114a1.331,1.331,0,0,0-1.5-1.16114c-.83838,0-1.27392.33887-1.27392.85449,0,1.62891,4.95117.61329,5.01611,3.8877C1039.43578,506.2372,1038.09691,507.39833,1035.91967,507.39833Z"/><path d="M1052.20434,502.46278h-4.82227v4.79h-2.2583V495.995h2.2583v4.62891h4.82227V495.995h2.25781v11.25781h-2.25781Z"/><path d="M1060.65111,507.39833a4.61294,4.61294,0,1,1,4.66114-4.61328A4.46748,4.46748,0,0,1,1060.65111,507.39833Zm0-1.96777a2.37848,2.37848,0,0,0,2.33838-2.64551,2.347,2.347,0,0,0-2.30615-2.64453c-1.19336,0-2.27441.85449-2.27441,2.64453C1058.40893,504.55946,1059.44115,505.43056,1060.65111,505.43056Z"/><path d="M1079.4685,502.31727a1.99834,1.99834,0,1,0-3.9834,0v4.93555h-2.2583v-4.93555a2.00579,2.00579,0,1,0-3.99952,0v4.93555h-2.2583v-8.93555h2.2583v1.08106a3.25218,3.25218,0,0,1,2.62891-1.21,3.41962,3.41962,0,0,1,3.145,1.71,3.5366,3.5366,0,0,1,3.06445-1.71,3.47551,3.47551,0,0,1,3.66114,3.82226v5.24219h-2.2583Z"/><path d="M1087.7683,507.39833a4.61465,4.61465,0,0,1,0-9.22559,4.1944,4.1944,0,0,1,4.40283,4.419,5.28438,5.28438,0,0,1-.06445.87109h-6.53223a2.09106,2.09106,0,0,0,2.14551,2.06446,1.84141,1.84141,0,0,0,1.79-1.08106h2.43555A4.153,4.153,0,0,1,1087.7683,507.39833Zm-2.17773-5.45215h4.24218a1.98536,1.98536,0,0,0-2.1289-1.91894A2.07511,2.07511,0,0,0,1085.59057,501.94618Z"/><path class="cls-1" d="M1052.84208,352.79978H990.40487l-5.51117-9.54669a4.60763,4.60763,0,1,0-7.98062,4.60769l5.51117,9.54669L951.20939,411.48l33.87254,58.68025h67.76015l7.48373-12.97229h.143v-.24089L1086.72215,411.48Zm18.07691,67.62459h-.01507l-5.31541,9.20793h.01507l-2.64265,4.57h-.00754l-5.3154,9.20784h.00753l-2.63511,4.56246h-.00754l-5.32294,9.21538h.00753l-2.16832,3.75691H990.40487v-.00753l-2.16833-3.74938-5.32294-9.21538-2.63512-4.56246-5.31541-9.20784-2.63511-4.57-5.31541-9.20793-2.50714-4.33665-2.57487-4.63783,5.195-9.268.08281.00754,19.12344-33.11965,4.043-7.04705h5.3455v-.00753h51.79887l23.20409,40.17423.06778-.00754,2.43182,4.33666.2033.35383h-.00754l2.56734,4.57755-2.57488,4.63783h.01508Z"/><polyline class="cls-2" points="862.201 281.404 892.898 281.404 892.898 152.155 908.526 152.155"/><polyline class="cls-2" points="862.201 281.364 892.898 281.364 892.898 410.613 908.526 410.613"/><polyline class="cls-2" points="862.201 281.404 892.898 281.404 892.898 152.155 908.526 152.155"/><path d="M144.15464,189.94141a3.15673,3.15673,0,0,0,1.6882-1.57867,10.65311,10.65311,0,0,0,1.11746-4.7989,30.0775,30.0775,0,0,0-1.39791-9.90266.96121.96121,0,0,0-.64544-.65327c-.74367-.32347-1.43743-.75989-2.16413-1.12521a1.31764,1.31764,0,0,0-.71024-.18462,5.48555,5.48555,0,0,1-6.22988-3.62631.94414.94414,0,0,0-.48269-.47535,5.50443,5.50443,0,0,1-3.59982-6.295.87067.87067,0,0,0-.17313-.60378,5.48071,5.48071,0,0,1-.00775-7.24706.94275.94275,0,0,0,.17251-.65667,5.50746,5.50746,0,0,1,3.58363-6.26.97816.97816,0,0,0,.51741-.49337,5.51769,5.51769,0,0,1,6.232-3.62529.98763.98763,0,0,0,.69095-.17888,5.484,5.484,0,0,1,7.24817.04637.76815.76815,0,0,0,.55315.16463,5.40384,5.40384,0,0,1,2.53918.06729c.3997.10821.48763-.00889.43-.41051a5.48206,5.48206,0,0,1,3.62484-6.03794.97746.97746,0,0,0,.50457-.51448,5.56915,5.56915,0,0,1,5.10756-3.70136.16025.16025,0,0,1,.0521-.0011,3.10351,3.10351,0,0,0,2.70007-.68162,5.2843,5.2843,0,0,1,6.15886.53067,1.176,1.176,0,0,0,.93783.26418c.73834-.04873,1.48546.05268,2.22916.05782a1.1332,1.1332,0,0,0,.68574-.175,5.47687,5.47687,0,0,1,7.07685.00955.915.915,0,0,0,.852.22321,5.47857,5.47857,0,0,1,6.11672,3.48467,1.09666,1.09666,0,0,0,.5397.61561,5.566,5.566,0,0,1,3.62372,6.24155.97563.97563,0,0,0,.1859.68753,5.50919,5.50919,0,0,1-.06358,7.25438.79168.79168,0,0,0-.14722.55537,5.50821,5.50821,0,0,1-3.61074,6.33371.9555.9555,0,0,0-.47414.48252,5.48142,5.48142,0,0,1-6.28937,3.6,1.52042,1.52042,0,0,0-1.38929,1.11521c-.58414,2.00806-1.144,4.02327-1.701,6.03909-.1205.43608-.1795.88876-.28473,1.32951a1.31721,1.31721,0,0,1-1.53821,1.07794,1.28445,1.28445,0,0,1-1.02626-1.61617c.454-1.91659.94823-3.82364,1.42752-5.73421.04989-.19887.10846-.39555.16743-.60929l-1.709-.32269c-.31141.82044-.56939,1.67155-.95216,2.46226a14.40707,14.40707,0,0,1-1.444,2.47729c-1.63234,2.13976-4.00281,2.42812-6.22991.83506-.22637-.16193-.44345-.33686-.62338-.47413-.44844.72427-.89776,1.43439-1.3238,2.15822a.45716.45716,0,0,0,.0429.37391,10.77527,10.77527,0,0,1,1.04344,6.40551c-.0767.95231-.19483,1.90129-.30211,2.92823.21984,0,.42036-.00325.62076.00051a4.482,4.482,0,0,1,4.17711,2.731,1.42151,1.42151,0,0,0,.62109.62447,4.52889,4.52889,0,0,1,2.72368,4.58682,1.58077,1.58077,0,0,0,.31486,1.1554,4.24925,4.24925,0,0,1,.73941,3.427c-.02924.15265-.04826.30727-.07994.51227h4.73213c-.1342-.24718-.17949-.47137-.31313-.55594-2.694-1.70467-3.71065-4.39654-4.27151-7.32639a33.73325,33.73325,0,0,1-.43249-3.73661,1.25917,1.25917,0,0,1,1.22112-1.50967c.84466-.032,1.36715.51,1.40941,1.46063a15.92177,15.92177,0,0,0,1.37212,6.4517,20.3763,20.3763,0,0,0,1.15906,1.83523c.436-.5639.87416-.92063.78656-1.626a4.48247,4.48247,0,0,1,2.67992-4.65589,1.22428,1.22428,0,0,0,.59067-.51289,4.60306,4.60306,0,0,1,4.82886-2.85535,1.44181,1.44181,0,0,0,.837-.25135,4.76049,4.76049,0,0,1,2.64112-.8795,1.26392,1.26392,0,0,1,1.3653,1.16284,1.235,1.235,0,0,1-1.1326,1.43085,2.53371,2.53371,0,0,0-1.89258,1.04489,1.22466,1.22466,0,0,1-1.48076.32154,1.91742,1.91742,0,0,0-2.83855,1.65785,1.266,1.266,0,0,1-1.13607,1.12532,1.93107,1.93107,0,0,0-1.67952,2.79941,1.35429,1.35429,0,0,1-.49792,1.708,1.93579,1.93579,0,0,0-.6026,2.42816.91966.91966,0,0,0,.92513.53468q4.50293-.01938,9.006.00416a1.25484,1.25484,0,0,1,1.31319,1.55,1.27036,1.27036,0,0,1-1.4223,1.03259q-5.47311.00269-10.94624.00054-25.50624.00015-51.01249.00418a1.51016,1.51016,0,0,1-1.24913-.39825,1.26166,1.26166,0,0,1-.26587-1.36211,1.1439,1.1439,0,0,1,1.10364-.81748c1.8147-.02325,3.62969-.025,5.44458-.03139,1.34351-.0047,2.68725.00744,4.03026-.01943a.74623.74623,0,0,0,.49-.31233,1.76979,1.76979,0,0,0-.31393-2.447,1.63583,1.63583,0,0,1-.577-2.148,1.89442,1.89442,0,0,0-1.58538-2.50928c-.94043-.17046-1.20152-.43907-1.34242-1.38119a1.91935,1.91935,0,0,0-2.59944-1.50886,1.38848,1.38848,0,0,1-1.95288-.53506,1.81628,1.81628,0,0,0-1.3528-.69729,2.05454,2.05454,0,0,1-.36243-.04575,1.2933,1.2933,0,0,1-1.066-1.40314,1.27809,1.27809,0,0,1,1.30059-1.18618,4.55944,4.55944,0,0,1,2.78067.92567,1.163,1.163,0,0,0,.69917.21011,4.5598,4.5598,0,0,1,4.90352,2.87527.85842.85842,0,0,0,.42144.41366,4.55885,4.55885,0,0,1,2.84232,4.90792.73449.73449,0,0,0,.0545.453C143.50087,188.93635,143.81877,189.41266,144.15464,189.94141Zm11.87067-38.00674a2.91908,2.91908,0,0,0,2.62911,2.83355,1.35038,1.35038,0,0,1,1.34456,1.339,2.851,2.851,0,0,0,3.9829,2.34978,1.32677,1.32677,0,0,1,1.86943.48133,2.84819,2.84819,0,0,0,4.6603-.02744,1.31986,1.31986,0,0,1,1.87806-.43551,2.94039,2.94039,0,0,0,2.57293.06831,1.30406,1.30406,0,0,1,1.786.48978,2.82383,2.82383,0,0,0,4.65028.00861,1.40132,1.40132,0,0,1,1.8385-.50332,3.56366,3.56366,0,0,0,1.46861.24038,2.79478,2.79478,0,0,0,2.56688-2.60637,1.312,1.312,0,0,1,1.32362-1.29205,2.83487,2.83487,0,0,0,2.34313-3.97872,1.36467,1.36467,0,0,1,.52165-1.906,2.83368,2.83368,0,0,0,.16314-4.42439c-1.00744-.87394-1.0344-.97554-.60712-2.28854a2.78073,2.78073,0,0,0-2.299-3.72005c-1.00653-.13586-1.28407-.40808-1.47624-1.44791a2.83147,2.83147,0,0,0-3.99883-2.24424,1.3558,1.3558,0,0,1-1.839-.48548,2.82966,2.82966,0,0,0-4.65533.00817,1.34577,1.34577,0,0,1-1.88626.43963,2.89508,2.89508,0,0,0-2.572-.06648,1.27231,1.27231,0,0,1-1.75025-.458,2.90275,2.90275,0,0,0-4.76591.045,1.186,1.186,0,0,1-1.61472.44711,2.9,2.9,0,0,0-4.18072,2.40792,1.16787,1.16787,0,0,1-1.09226,1.14822,6.33284,6.33284,0,0,0-.81887.16837,2.89649,2.89649,0,0,0-1.7476,3.94262c.31148.765.23845,1.26774-.34462,1.67508a2.92388,2.92388,0,0,0-.0279,4.87424,1.245,1.245,0,0,1,.42241,1.67075C156.22,151.0904,156.138,151.51826,156.02531,151.93467Zm13.28087,10.74394a1.79735,1.79735,0,0,0-.24471.00137,5.53348,5.53348,0,0,1-4.53379-1.29.89019.89019,0,0,0-.6142-.1662,5.46294,5.46294,0,0,1-6.27435-3.62186.88048.88048,0,0,0-.43424-.45583,5.47026,5.47026,0,0,1-3.659-6.2498.83341.83341,0,0,0-.10631-.58233,5.50812,5.50812,0,0,1-1.27136-4.97631c.06637-.29434-.07723-.4061-.33178-.36968a6.20225,6.20225,0,0,0-1.26886.24992,1.44072,1.44072,0,0,1-1.91945-.52389,2.83666,2.83666,0,0,0-4.49323-.11615c-.78075.91148-1.04654.98124-2.16007.56693a2.84044,2.84044,0,0,0-3.77287,2.11254c-.23573,1.32754-.32047,1.41529-1.60708,1.664a2.82515,2.82515,0,0,0-2.17223,3.81458c.40209,1.10575.3325,1.37123-.55575,2.12014a2.84194,2.84194,0,0,0-.03168,4.39179c.91714.74362,1.00049,1.04886.58855,2.15526a2.85444,2.85444,0,0,0,2.29136,3.82893c.99967.13148,1.30881.42759,1.45648,1.39512a2.84323,2.84323,0,0,0,3.97748,2.29209,1.35444,1.35444,0,0,1,1.90379.52248,2.84172,2.84172,0,0,0,4.554.0108,1.35806,1.35806,0,0,1,1.99053-.48708,2.89058,2.89058,0,0,0,2.38205.09779c.99182-.38952,1.34178-.28881,2.02386.56539a2.86107,2.86107,0,0,0,4.39757.08658c.794-.97188,1.01269-1.03325,2.191-.61486a2.83826,2.83826,0,0,0,3.80451-2.32462,1.393,1.393,0,0,1,1.48181-1.4344A2.78464,2.78464,0,0,0,169.30618,162.67861Zm-5.40256,30.15445c3.05234,0,6.10474-.00905,9.157.0094a.88151.88151,0,0,0,.92133-.599,1.94307,1.94307,0,0,0-.64874-2.33769,1.372,1.372,0,0,1-.46205-1.80888,1.87482,1.87482,0,0,0-1.46476-2.64164,1.50324,1.50324,0,0,1-1.43083-1.43967,1.85277,1.85277,0,0,0-2.50308-1.50625,1.59075,1.59075,0,0,1-2.06319-.52453,1.81917,1.81917,0,0,0-2.91133.00181,1.54635,1.54635,0,0,1-2.01035.537,1.83852,1.83852,0,0,0-2.52161,1.3947,1.643,1.643,0,0,1-1.56267,1.57065,1.84074,1.84074,0,0,0-1.402,2.519c.341,1.00094.27959,1.284-.50468,1.96168a1.92479,1.92479,0,0,0-.67033,1.92311.95985.95985,0,0,0,1.12953.94052Q159.42972,192.83437,163.90362,192.83306Zm-19.67377-.01974h7.029a.73136.73136,0,0,0,.02214-.14436c-.00931-.08657-.02395-.17272-.03972-.25844a4.63279,4.63279,0,0,1,.79847-3.67518,1.35191,1.35191,0,0,0,.2374-.8503,4.61022,4.61022,0,0,1,2.72794-4.74664,1.39438,1.39438,0,0,0,.62317-.61767,4.36086,4.36086,0,0,1,4.014-2.71692,3.03216,3.03216,0,0,0,2.16036-.6069,1.1006,1.1006,0,0,1,.52167-.23216c.84592-.14775,1.69593-.27207,2.63308-.41864a15.618,15.618,0,0,0,.17492-4.63255,10.89905,10.89905,0,0,0-.54142-1.89856c-.09257-.28877-.29553-.33071-.61707-.30091a18.88059,18.88059,0,0,1-2.436.06936c-.581-.02156-.80216.16744-.74391.74091a14.57186,14.57186,0,0,1,.13334,2.18713,4.95627,4.95627,0,0,1-1.79233,3.86377,4.83775,4.83775,0,0,1-5.93284-.16211,8.86308,8.86308,0,0,1-3.296-5.65077c-.04347-.21185-.09787-.42145-.15112-.64885l-1.62287.87777c.02238.1335.03717.254.06318.37195.35625,1.6159.784,3.21978,1.056,4.84968a22.256,22.256,0,0,1-.04719,8.529,7.76231,7.76231,0,0,1-2.8136,4.93109A16.93191,16.93191,0,0,1,144.22985,192.81332Zm14.09489-18.54353-.026-.00131c0-.15667-.00793-.31381.00154-.4699.02543-.41927-.109-.49426-.568-.51474a11.37955,11.37955,0,0,1-2.69332-.45076c-.52623-.15539-.946-.64216-1.4595-.88157a2.139,2.139,0,0,0-.97045-.0416c-.05083.003-.14562.23245-.12441.338a6.2334,6.2334,0,0,0,2.3,4.08167c1.516,1.10293,3.08213.56525,3.45938-1.17768A7.00431,7.00431,0,0,0,158.32474,174.26979Zm16.50377-12.80187c-.84942-.0655-1.64906-.07962-2.43083-.20508-.47736-.0766-.52783.033-.47718.46521a5.44917,5.44917,0,0,1-.80252,3.74768c-.20644.31368-.44836.604-.67426.9054a1.41976,1.41976,0,0,0,2.13969-.20038A11.82253,11.82253,0,0,0,174.82851,161.46792Z"/><path d="M176.5108,175.24428a1.30529,1.30529,0,1,1,2.61032.03085,1.33007,1.33007,0,0,1-1.29766,1.30267A1.31394,1.31394,0,0,1,176.5108,175.24428Z"/><path d="M146.95787,165.55775a9.15263,9.15263,0,0,1-6.11045-2.61813,1.3336,1.3336,0,0,1-.07233-1.88478,1.25848,1.25848,0,0,1,1.83328-.05114,6.86619,6.86619,0,0,0,4.5109,1.94157,1.25538,1.25538,0,0,1,1.15114,1.37351A1.28563,1.28563,0,0,1,146.95787,165.55775Z"/><path d="M153.60962,162.24157a1.313,1.313,0,1,1-2.62541.048A1.32811,1.32811,0,0,1,152.302,160.954,1.30955,1.30955,0,0,1,153.60962,162.24157Z"/><path class="cls-3" d="M399.22745,421.45145c.00007-12.69606,0-25.36179.00005-38.06291-.39368-.114-.73537-.22012-1.08094-.31164a3.23776,3.23776,0,0,1-2.47705-2.53257,7.97563,7.97563,0,0,1-.01092-3.36726,3.81449,3.81449,0,0,1,3.36064-2.54442c2.2037.06066,4.41027.01686,6.61565.01678q2.37077-.00009,4.74155,0h1.09784a8.39585,8.39585,0,0,1,2.13906-4.101,7.27452,7.27452,0,0,1,4.04044-2.07082,15.62654,15.62654,0,0,1,2.39816-.20191c1.4696-.03072,2.9406.00993,4.41049-.01287a7.87294,7.87294,0,0,1,8.20919,6.32535c.29615.01911.61441.05711.93272.05751q5.51343.00689,11.02686.00433c2.31635.00134,3.58867,1.01412,3.97278,3.24515a5.94949,5.94949,0,0,1-.229,3.04023,3.41821,3.41821,0,0,1-2.13159,2.0813c-.37421.13918-.77308.21207-1.16623.31667-.18822.777-.22147,36.99445-.02937,38.08707a.9.9,0,0,0,.27549.1493,3.53414,3.53414,0,0,1,3.32836,3.77556,16.54637,16.54637,0,0,1-.11859,2.29767c-.27034,2.04963-1.86914,2.96512-3.72538,3.01691-1.76292.04918-3.5283.01013-5.2926.00991-.35906,0-.71813,0-1.15215,0-.022.45148-.05372.808-.05428,1.16454-.004,2.53618-.04246,5.07319.009,7.60833a3.95417,3.95417,0,0,1-5.76388,3.6686,3.7245,3.7245,0,0,1-2.19419-2.96962c-.01645-.10823.00008-.22124-.0136-.33016-.06781-.5398-.37-.91838-.7475-.9444a1.02844,1.02844,0,0,0-.96228.88954,4.144,4.144,0,0,0-.0194.66018c-.0023.99242-.035,1.9861.0033,2.977a6.57112,6.57112,0,0,1-13.01669,1.14275,6.44383,6.44383,0,0,1-.05636-1.31926c-.005-2.49942.00629-4.99891-.01382-7.49817a2.617,2.617,0,0,0-.23857-1.15837,1.087,1.087,0,0,0-.75307-.5133c-.38956-.02673-.63731.305-.71369.70859-.06094.322-.11083.64648-.185.96535-.69788,2.99837-4.19589,3.71354-6.43712,2.07919a3.29308,3.29308,0,0,1-1.34208-2.66439c-.031-1.42954-.00761-2.86026-.00761-4.35589a6.07814,6.07814,0,0,0-.77355-.10646c-1.801-.00837-3.60222.0074-5.40305-.01251a6.75619,6.75619,0,0,1-1.40817-.175,3.37276,3.37276,0,0,1-2.76809-3.473c-.00581-.588.03285-1.17822-.00444-1.76388a3.53657,3.53657,0,0,1,3.20556-3.65777A3.34214,3.34214,0,0,0,399.22745,421.45145Zm6.53852,6.24023a2.71545,2.71545,0,0,1,.10993-.6405,2.56513,2.56513,0,0,1,.54517-.91559,1.44736,1.44736,0,0,1,2.30637,1.03319,14.716,14.716,0,0,1,.0198,1.54214q.00243,2.92107-.0005,5.84215c-.00089.41764.016.78744.47823,1.01a1.09429,1.09429,0,0,0,1.69275-.87549c.02218-.14438-.0006-.2959.02348-.43973a3.45332,3.45332,0,0,1,2.36046-2.91108,3.54957,3.54957,0,0,1,3.86354.79406,4.20556,4.20556,0,0,1,1.26829,3.17c.01963,2.71885.00227,5.438.01162,8.15691a3.55234,3.55234,0,0,0,3.59439,3.43309,3.61813,3.61813,0,0,0,3.687-3.718c-.035-1.21146-.04346-2.42644.00614-3.637a3.8023,3.8023,0,0,1,2.96672-3.52722,3.7087,3.7087,0,0,1,4.13647,2.0001,4.25767,4.25767,0,0,1,.41667,1.57409.84523.84523,0,0,0,.73352.94475,1.071,1.071,0,0,0,1.42752-1.01869c.01257-.25661.0035-.51429.00349-.7715q-.0002-5.34614-.00036-10.69226c0-.29393-.01721-.58985.01021-.8814a1.34085,1.34085,0,0,1,1.41247-1.35885,1.31449,1.31449,0,0,1,1.4677,1.28462c.02822.17524.06353.34936.10253.562a2.80529,2.80529,0,0,0,.54541.11613c1.72687.009,3.45392.01653,5.18066-.00111a3.66979,3.66979,0,0,0,1.07528-.18747.71239.71239,0,0,0,.44307-.41406,3.58047,3.58047,0,0,0-.23685-2.67125h-1.47236l-43.54065,0c-2.04965,0-2.04965,0-2.00813,2.06214.02043,1.015.20786,1.2108,1.23839,1.21594,1.76363.00882,3.52734.00477,5.291-.00162C405.17541,427.76934,405.42524,427.72484,405.766,427.69168Zm16.21054-47.33219q10.97335,0,21.94671-.00084a3.836,3.836,0,0,0,.98684-.03759,1.11939,1.11939,0,0,0,.6806-.471,2.15,2.15,0,0,0-.02473-1.90954c-.28083-.57347-.81973-.35161-1.27031-.39851a1.06891,1.06891,0,0,0-.11023-.00048q-22.11211-.00009-44.22423,0a6.34966,6.34966,0,0,0-.7713.00987c-.5931.073-.7593.37009-.79543,1.21071-.05079,1.182.109,1.43591.75558,1.57926a4.14183,4.14183,0,0,0,.87982.01776Q411.00317,380.35981,421.97651,380.35949Zm7.63147-5.74818a4.74592,4.74592,0,0,0-4.716-3.418,40.27536,40.27536,0,0,0-6.70373.14024,4.41614,4.41614,0,0,0-3.55437,3.27778Zm4.1274,11.748c-1.02767.61613-1.9263,1.18055-2.85161,1.69721a.87228.87228,0,0,0-.49832.88351c.01854.84378.021,1.68855.00136,2.53226a.85993.85993,0,0,0,.50253.88c.80466.43375,1.58324.91583,2.37324,1.37683a.87386.87386,0,0,0,.936-.038c.76394-.43351,1.54894-.83238,2.29244-1.29793a1.02352,1.02352,0,0,0,.457-.68194c.0469-1.16368.02125-2.33029.02125-3.45078Zm-28.28407.035c-.9198.52312-1.77477,1.014-2.63463,1.49619-.36261.20334-.687.412-.68058.90276.01245.953-.01731,1.90709.02077,2.85871a.88129.88129,0,0,0,.35446.61086c.7679.49337,1.57345.92766,2.35457,1.40116a1.01235,1.01235,0,0,0,1.13284.00337c.72679-.42243,1.46779-.82045,2.20329-1.22788a.98691.98691,0,0,0,.52581-.99923c-.02775-.80552-.031-1.61373.00246-2.41886a1.11559,1.11559,0,0,0-.67127-1.1385C407.19074,387.41651,406.34524,386.90774,405.45131,386.39429Zm9.7111,23.76213,3.27491-1.9021c0-1.12356-.0079-2.222.00424-3.32027a.79344.79344,0,0,0-.51465-.7589c-.77152-.42071-1.53421-.86-2.27977-1.325a.89618.89618,0,0,0-1.02683-.01433c-.75554.44939-1.49948.92089-2.27461,1.33369a.85708.85708,0,0,0-.51169.87433c.016.80794.03165,1.6177-.00537,2.42428a1.12636,1.12636,0,0,0,.65524,1.15346C413.351,409.09638,414.20069,409.60286,415.16241,410.15642Zm8.98995-23.7738c-.92166.53349-1.87052,1.07485-2.81041,1.63135a.86759.86759,0,0,0-.464.81221c.01629.91649.01021,1.8335.00235,2.75022a.72659.72659,0,0,0,.39485.7171c.76343.43165,1.51564.88363,2.26475,1.33994a1.08317,1.08317,0,0,0,1.23421.0167c.87146-.53133,1.75837-1.03733,2.70449-1.59222,0-.9952-.026-1.9814.00978-2.96535a1.17947,1.17947,0,0,0-.71258-1.22456C425.90246,387.41431,425.06017,386.90085,424.15236,386.38262ZM405.6281,410.18756l3.29328-1.887v-3.75219c-.94872-.58143-1.897-1.19221-2.87986-1.74113a.99582.99582,0,0,0-.81111.01474c-.84139.43584-1.65929.92043-2.46219,1.42467a.8779.8779,0,0,0-.397.58191c-.03765,1.16137-.01834,2.32458-.01834,3.43Zm23.57871.59564c-1.02815.58955-1.87424,1.099-2.74477,1.56245a.85825.85825,0,0,0-.53236.8612c.0182.91694.01212,1.83457.00217,2.75177a.81025.81025,0,0,0,.425.8171q1.19783.66732,2.36728,1.3851a.8097.8097,0,0,0,.92027-.03039c.728-.42215,1.47523-.8112,2.19966-1.23908a1.26835,1.26835,0,0,0,.69818-1.262c-.0487-.76013.0073-1.52654-.02624-2.2883a.92863.92863,0,0,0-.2691-.66138C431.24665,412.01709,430.21373,411.40376,429.20681,410.7832Zm6.24782,5.69764,3.26319,1.90118c1.01558-.56531,1.97-1.10223,2.93056-1.62792a.72318.72318,0,0,0,.38294-.72581c-.01-1.09653-.00383-2.1932-.00383-3.28652l-3.33737-1.93048-3.23549,1.93277Zm1.74391-8.22172c0-1.11039-.01658-2.13607.0075-3.16078a.92973.92973,0,0,0-.56935-.9518c-.70947-.37461-1.38813-.80878-2.071-1.232a.95941.95941,0,0,0-1.11939-.03708c-.92874.57238-1.878,1.11147-2.84776,1.681,0,.619.00015,1.202,0,1.78491-.00059,1.92-.00548,1.92842,1.64736,2.87775.58712.33722,1.20412.62243,1.78055.91761Zm-4.92484-8.09367V396.537c-.94779-.55967-1.86276-1.08922-2.7655-1.63884a.83735.83735,0,0,0-.92695-.03939c-.8202.47639-1.63423.96352-2.45843,1.43283a.73876.73876,0,0,0-.39956.71732c.00732,1.09426.00279,2.18861.00279,3.31878.87712.5173,1.72549,1.01175,2.56748,1.51684a1.0166,1.0166,0,0,0,1.1327-.03548C430.36691,401.2536,431.31788,400.71562,432.2737,400.16545Zm-21.82888,10.638-3.2531,1.91655c0,1.14024.0043,2.16727-.0024,3.19425a.81848.81848,0,0,0,.38567.83967c.79657.44832,1.58244.91586,2.36834,1.38286a.73911.73911,0,0,0,.82126.06569c.79271-.45689,1.59963-.8892,2.39049-1.34917a.86548.86548,0,0,0,.45638-.81771c-.01713-.9905.01395-1.98224-.02266-2.9717a.87572.87572,0,0,0-.34517-.61818C412.34892,411.88456,411.42419,411.37131,410.44482,410.80342Zm1.17181-22.5193c0,1.11188.00425,2.2085-.00259,3.30505a.73144.73144,0,0,0,.41664.70538c.76267.43175,1.51582.88092,2.26361,1.33814a1.08092,1.08092,0,0,0,1.23335.01011c.80741-.49272,1.62912-.962,2.46128-1.45071,0-1.22971-.00349-2.39947.00226-3.56917a.71915.71915,0,0,0-.40693-.71086c-.92858-.49781-1.8475-1.01366-2.70833-1.48842Zm27.04886,13.66331,3.14707-1.81525c0-1.071-.00884-2.09629.00455-3.12131a.79855.79855,0,0,0-.50122-.76844c-.70349-.39231-1.39129-.81421-2.072-1.24533a1.2206,1.2206,0,0,0-1.43531-.0123c-.67976.43291-1.36431.86241-2.0741,1.24238a.86087.86087,0,0,0-.52435.8677c.01663.916.00517,1.83248.00517,2.83011Zm-15.8407,14.74079V412.502l-2.91756-1.67949c-.9342.52658-1.783,1.03125-2.65754,1.4864a.92315.92315,0,0,0-.58738.94439c.02764.881.02626,1.7639.00139,2.645a.93229.93229,0,0,0,.56751.95863c.74505.39167,1.47111.8233,2.18182,1.27488a.87463.87463,0,0,0,1.02154-.03036C421.21953,417.633,422.00815,417.17054,422.82479,416.68822ZM410.3437,401.93786l3.21727-1.85273c0-.95819-.03516-1.83886.01264-2.715a1.21025,1.21025,0,0,0-.64761-1.17922c-.74933-.45349-1.53391-.84834-2.2899-1.29135a.80834.80834,0,0,0-.91939.01178c-.78064.4726-1.57024.93067-2.362,1.38444a.7423.7423,0,0,0-.39115.72443c.00961.84238-.019,1.686.02057,2.52665a.88141.88141,0,0,0,.34022.6224C408.3157,400.78437,409.33542,401.35381,410.3437,401.93786Zm13.83742.90883c-.8446.48151-1.59869.92941-2.371,1.34329a.78563.78563,0,0,0-.48214.77759c.01426.87929.01883,1.75928-.00156,2.63831a.94052.94052,0,0,0,.47931.9159c.90787.53251,1.81822,1.06077,2.72052,1.58661l3.135-1.83179V404.892Zm-4.59333-8.13132c-.88831.48739-1.64747.92685-2.42808,1.32416a1.16327,1.16327,0,0,0-.71326,1.225c.04056.73069.01915,1.46545.00725,2.19816a.79371.79371,0,0,0,.47643.78295c.80174.43713,1.59034.89966,2.37043,1.37462a.9233.9233,0,0,0,1.0289-.00485c.69838-.39838,1.41594-.76494,2.09791-1.18912a.87092.87092,0,0,0,.38337-.5907c.03775-1.08906.01774-2.18013.01774-3.2175Zm22.39152-7.5784a19.38529,19.38529,0,0,0-1.70882.94487,1.03819,1.03819,0,0,0-.3831.71626c-.04394.948-.02593,1.89951-.00873,2.8493.003.16616.06682.42008.18247.4805a7.17072,7.17072,0,0,0,1.91818,1.01257Zm-16.32011-3.7069c.13137.22846.19679.50321.36785.61223.80182.511,1.638.96777,2.45058,1.46254a.80517.80517,0,0,0,.92028-.00408c.75717-.44578,1.5422-.84528,2.289-1.30707.28062-.17352.64079-.37379.56212-.82609A36.152,36.152,0,0,0,425.6592,383.43007Zm16.12713-.068a37.13421,37.13421,0,0,0-6.52354.04267c.12864.60467.12864.60467,3.12365,2.25524A6.74211,6.74211,0,0,0,441.78633,383.36208Zm-28.47159.00246a36.11292,36.11292,0,0,0-6.54153.05775c.09794.16533.14885.36886.27693.44893a26.72806,26.72806,0,0,0,3.15638,1.83123c.93426-.53948,1.78483-1.03794,2.6433-1.52237C413.14755,384.01208,413.44505,383.86585,413.31474,383.36454ZM404.116,412.72108l-1.94554-1.16177v6.10228c.55182-.32583,1.00042-.62407,1.47873-.86279a.84718.84718,0,0,0,.471-.89535C404.10767,414.88093,404.116,413.85815,404.116,412.72108Zm37.87686-3.42608v-5.87031c-.43344.2377-.82364.43354-1.19515.66a1.27567,1.27567,0,0,0-.71712,1.24906c.04515.69178-.02457,1.39148.02868,2.08211a1.55823,1.55823,0,0,0,.35317.987A9.16325,9.16325,0,0,0,441.99284,409.295Zm-4.83416,12.02907c0-.15983.04193-.3333-.00617-.36353-1.04119-.65445-2.09242-1.29293-3.14692-1.93768-1.11886.66219-2.18394,1.28837-3.24111,1.92763-.07046.0426-.081.18437-.12059.28307A34.28322,34.28322,0,0,0,437.15868,421.32407Zm-28.23941.0264c0-.21195.02791-.32811-.004-.348-1.04331-.64832-2.09236-1.28738-3.12616-1.919-1.941.83586-3.0785,1.59175-3.35919,2.267Zm9.49183-.10978c-.03407-.10019-.03718-.24633-.10542-.2895-1.014-.64128-2.03665-1.26893-3.0272-1.88123-1.99031.91061-2.92864,1.52049-3.36606,2.17674A31.21851,31.21851,0,0,0,418.4111,421.24069Zm2.90619-.04257a26.68082,26.68082,0,0,0,6.45716.03136,4.9341,4.9341,0,0,0-.62143-.61766,10.23515,10.23515,0,0,0-1.22716-.72406c-1.62838-.80726-1.10109-.96407-2.83942.06588-.47185.27958-.949.551-1.41032.84712A2.12328,2.12328,0,0,0,421.31729,421.19812Zm1.39383-37.842a18.92208,18.92208,0,0,0-3.27229-.093,10.69984,10.69984,0,0,0-3.094.19311,32.841,32.841,0,0,0,3.055,1.90723.7447.7447,0,0,0,.6087-.0481q1.19583-.6611,2.351-1.39422C422.50285,383.83054,422.56133,383.6059,422.71112,383.35611Zm-20.48584,12.24318a24.63727,24.63727,0,0,0,.07416,5.49833c.35425-.19836.68726-.41943,1.04782-.57781a.87453.87453,0,0,0,.56557-.95257,10.94711,10.94711,0,0,1,.00874-1.86779,1.58877,1.58877,0,0,0-1.22758-1.90308C402.5606,395.75132,402.43354,395.68756,402.22528,395.59929Zm1.58154-12.28092h-1.60407v1.44288C403.55168,384.233,403.747,384.05948,403.80682,383.31837Zm38.15986,38.02014v-1.36493c-.51571.28293-.97164.50707-1.396.78028-.14373.09256-.20758.30917-.38046.58465Z"/><path d="M720.03151,273.05873c-.83453,0-1.61526,0-2.396,0-.30846,0-.617.00311-.92538-.0011a1.1456,1.1456,0,0,1-1.17589-.8427,1.12578,1.12578,0,0,1,.56081-1.30135q2.83878-1.769,5.68255-3.53007,13.53038-8.396,27.05766-16.79708a1.37741,1.37741,0,0,1,1.6172-.00109q16.275,10.11442,32.5598,20.213a3.70681,3.70681,0,0,1,.35623.23468,1.13459,1.13459,0,0,1-.71625,2.02174c-.98461.01021-1.9694.00363-2.95411.004-.12835,0-.2567,0-.4391,0v.51746q-.00024,17.18827-.00059,34.37654c0,.1542.00527.30881-.004.46251a1.10591,1.10591,0,0,1-1.10259,1.08657q-3.45229.0185-6.90475-.00059a1.10365,1.10365,0,0,1-1.0963-1.0921c-.00852-.15377-.00358-.30832-.00358-.46252q-.00018-14.89294-.0001-29.78589v-.51851H729.1439v.48275q0,14.89287-.00006,29.78575c0,.15421.00425.30863-.00217.46258a1.11683,1.11683,0,0,1-1.13422,1.13061q-3.41676.01561-6.83364.00024a1.11638,1.11638,0,0,1-1.14078-1.15935c-.00461-.15408-.00148-.3084-.00148-.4626q-.00006-17.13491,0-34.26979Zm6.83418,34.16544v-.48406q0-14.98244,0-29.96488c0-1.04661.38768-1.43245,1.43943-1.43246q21.33825-.00012,42.6765,0c1.05241,0,1.44357.38732,1.44358,1.42964q.00015,15.00011.00006,30.00022v.44h4.556v-.47785q0-17.22447.00009-34.44894c0-.14234-.006-.28517.00339-.42694a1.127,1.127,0,0,1,1.08539-1.0686c.14849-.00741.29767-.00111.44653-.00111a.67832.67832,0,0,0-.25752-.25483q-14.16489-8.79186-28.3277-17.58707a.4612.4612,0,0,0-.56978-.00195q-14.16023,8.79934-28.32765,17.58711c-.09554.0593-.18638.12619-.34787.23613.1505.01015.21579.01726.2812.01856.94928.01887,1.34223.42437,1.34224,1.38886q.00027,17.29565.00012,34.59129v.45684Z"/><path d="M749.6354,266.23813q5.656-.00016,11.312.00072a1.1392,1.1392,0,1,1,.18764,2.27062c-.12961.01095-.26066.00654-.39105.00654q-11.13419.00039-22.26836.00017c-.89124,0-1.4149-.41935-1.41842-1.13461-.00352-.71518.52379-1.14331,1.4084-1.14332Q744.05053,266.23821,749.6354,266.23813Z"/><path d="M749.61017,263.96031q-3.37832-.00038-6.75662-.00132a1.14635,1.14635,0,0,1-1.24034-1.13249,1.13348,1.13348,0,0,1,1.08766-1.13979c.28386-.01359.56886-.00363.85334-.00364q6.401-.00027,12.802.00019a1.14645,1.14645,0,0,1,1.27129,1.06171,1.126,1.126,0,0,1-1.15409,1.21193c-.99558.01186-1.99139.00354-2.9871.00363Q751.54825,263.96071,749.61017,263.96031Z"/><path d="M745.08959,304.87127c-.80107.34411-1.54014.66066-2.27846.979-.95829.41315-1.91842.82217-2.87265,1.24449a1.25185,1.25185,0,0,1-1.06346.01258q-3.362-1.45721-6.72847-2.90412a1.10971,1.10971,0,0,1-.72156-1.08514q-.01044-4.41258-.00541-8.82518a1.11334,1.11334,0,0,1,.74314-1.07253c2.21141-.95056,4.427-1.89147,6.63551-2.84864a1.42564,1.42564,0,0,1,1.22785.01139c1.5938.7058,3.19763,1.389,4.79844,2.07894a2.60467,2.60467,0,0,0,.265.07947v-.41339q0-4.30588.0003-8.61178a1.1648,1.1648,0,0,1,1.326-1.33427q6.65511-.00151,13.3102.00017a1.15885,1.15885,0,0,1,1.30886,1.31657q.00153,11.2095,0,22.419a1.16379,1.16379,0,0,1-1.30953,1.31727q-6.67342.00142-13.34684-.00016a1.15846,1.15846,0,0,1-1.28881-1.30172C745.08873,305.60191,745.08959,305.27063,745.08959,304.87127Zm13.64-11.31512v-9.07223h-2.24988c0,.1521,0,.27994,0,.40779-.00013.96041.00535,1.92087-.002,2.88123a1.14711,1.14711,0,0,1-1.72081,1.08495c-.48168-.229-.96089-.46467-1.42989-.71828a.52194.52194,0,0,0-.55913-.00345c-.5117.27421-1.02662.54785-1.56042.77413a1.11911,1.11911,0,0,1-1.575-1.07112q.00864-1.49379.013-2.98761c.00051-.12446.00007-.24891.00007-.367h-2.24491v9.07163Zm-9.0891,2.29155c-.66641,0-1.282.01409-1.89644-.00617-.2906-.00958-.384.07153-.3828.37345q.01666,4.17949-.0011,8.35907c-.00155.32351.09832.39105.40293.39017,3.5339-.01019,7.06784-.00633,10.60177-.00732.12484,0,.24967-.01168.36661-.01752v-9.09161c-.66381,0-1.30233.011-1.94015-.00535-.25854-.00662-.31849.09136-.316.33046.01041.99586.00936,1.99194.00258,2.98788a1.14837,1.14837,0,0,1-1.74622,1.08013c-.46911-.228-.94085-.452-1.39846-.70162a.55383.55383,0,0,0-.59107.00774c-.43825.23578-.89049.4454-1.33389.67185a1.151,1.151,0,0,1-1.77222-1.12539C749.65619,298.02909,749.64045,296.964,749.64045,295.8477Zm-11.41153,8.49536c.01352-.10566.02462-.152.02465-.19842.00118-1.96727-.00172-3.93455.00623-5.90179.00084-.208-.09525-.28495-.26469-.35717-1.32969-.56668-2.65594-1.14141-3.98376-1.71247-.084-.03611-.1722-.06229-.2768-.09965a.98024.98024,0,0,0-.02909.15558c-.00159,1.97912-.00575,3.95827.00833,5.93729a.46086.46086,0,0,0,.23949.32145c.53484.25379,1.0831.47938,1.627.714C736.44816,303.57628,737.31636,303.94993,738.22892,304.34306Zm6.85766-8.26575a.96841.96841,0,0,0-.14989.0293c-1.40378.60267-2.80955,1.20091-4.2054,1.82145a.49628.49628,0,0,0-.18945.38519c-.0121,1.90711-.00852,3.81433-.00739,5.72152,0,.08838.01243.17676.01974.27409a.6453.6453,0,0,0,.12961-.02059c1.40313-.60416,2.80745-1.2057,4.2045-1.82364a.42688.42688,0,0,0,.18933-.31715c.02174-.43721.00894-.87615.00894-1.31445C745.08658,299.25822,745.08658,297.6834,745.08658,296.07731Zm-9.60579-1.75358c.79271.34254,1.5407.668,2.2906.989a4.63411,4.63411,0,0,0,1.60364.62613,4.80382,4.80382,0,0,0,1.63936-.626c.75063-.31906,1.49753-.6469,2.28367-.98728a1.61909,1.61909,0,0,0-.1804-.11432c-1.17415-.50822-2.34692-1.01981-3.527-1.514a.61647.61647,0,0,0-.43025.0155c-1.14686.48146-2.28748.9778-3.42919,1.47148C735.65946,294.21525,735.5937,294.26029,735.48079,294.32373Zm16.44467,3.12317a1.7065,1.7065,0,0,1,2.24823-.02069v-1.57737c-.702,0-1.37657-.00527-2.05079.00819a.26687.26687,0,0,0-.18864.17971C751.91731,296.47069,751.92546,296.90563,751.92546,297.4469Zm2.2473-11.3937v-1.56986h-2.22635v1.54907A1.66753,1.66753,0,0,1,754.17276,286.0532Z"/><path class="cls-4" d="M990.67724,151.77181v-1.04464c-.65282,0-1.27953.00907-1.90588-.00226a1.07227,1.07227,0,0,1-1.20187-1.21437q-.01405-1.9298.00014-3.85975a1.06028,1.06028,0,0,1,1.20658-1.2039q2.97614-.01354,5.95235-.00219a1.06881,1.06881,0,0,1,1.2111,1.2057q.01738,1.92969.00079,3.85964a1.07357,1.07357,0,0,1-1.20424,1.21375c-.60935.013-1.21889.017-1.82831.02722-.01669.00029-.03294.02685-.07847.06643v.956h2.26646c1.19919,0,2.39838-.002,3.59756.00066,1.11459.00251,1.42077.31225,1.43255,1.43975.002.19169.00029.38342.00029.6131h4.188c0-.9386-.01648-1.88772.00349-2.83608a5.2638,5.2638,0,0,1,2.33785-4.44793,16.99308,16.99308,0,0,1,2.32364-1.1305c-.09862-.10532-.24861-.27116-.40457-.4312a8.50634,8.50634,0,0,1-.35956-10.89519,6.39784,6.39784,0,0,1,4.73794-2.16634,10.71124,10.71124,0,0,1,2.72932.1638c3.047.628,4.79061,2.811,5.26746,6.12379a7.53776,7.53776,0,0,1-2.38332,7.10239,1.32627,1.32627,0,0,0-.13927.20589c.18459.05026.341.0951.49856.13539a5.54841,5.54841,0,0,1,4.22811,5.459q.00555,3.14008.00029,6.2802c0,.193,0,.38591,0,.66259.276,0,.50707,0,.73811,0q12.39528-.0015,24.79055-.00312c1.45412-.00022,1.68647.2385,1.68629,1.71746q-.00145,12.00465-.00084,24.00928c-.00007,1.19429-.30359,1.49355-1.51359,1.49357q-29.89345.00034-59.78692,0c-1.198,0-1.50082-.30417-1.50086-1.5068q-.00046-15.24306,0-30.48613c0-1.20847.29517-1.504,1.49874-1.50514C989.58557,151.77138,990.10542,151.77181,990.67724,151.77181Zm57.56943,8.421H989.69352V183.138h58.55315Zm-39.57517-18.8192a6.9228,6.9228,0,0,0,3.63247,3.74344,3.0738,3.0738,0,0,0,2.88376-.01094,6.66838,6.66838,0,0,0,3.56973-3.709c.07382-.2068.02727-.62332-.11168-.713-1.12622-.72709-2.28783-1.39934-3.45178-2.09616a6.08239,6.08239,0,0,1-2.96454,1.92331C1011.08945,140.84413,1009.91987,141.07572,1008.6715,141.37362Zm-18.95512,12.50365v4.1304h8.26646v-4.1304Zm29.07373-15.58215c-.32216-1.75776-.91054-3.152-2.4748-3.79377a5.80038,5.80038,0,0,0-5.96257.49472c-1.32956.98747-1.6723,2.49632-1.74977,4.32187,1.35345-.405,2.58413-.68644,3.73776-1.15689a3.22758,3.22758,0,0,0,1.35956-1.24c.576-.90439.977-1.08239,1.89614-.53616C1016.60343,136.98332,1017.60718,137.58721,1018.79011,138.29512Zm-8.1615,9.31942V151.73h6.19847v-4.11547Zm-.0205,10.38405h6.22316v-4.08442h-6.22316Zm-2.15942.0369V147.88333a3.43487,3.43487,0,0,0-2.0357,3.18375c-.02041,2.15821-.00658,4.31675-.00342,6.47515.00025.16442.03131.3288.048.49326Zm10.56684-10.14418v10.12855h2.02472c0-2.49194.06611-4.95267-.028-7.40725A3.15819,3.15819,0,0,0,1019.01553,147.89131Zm-29.32545.69361h4.10349v-2.01026h-4.10349Zm14.61125,7.41364h-4.12546V158h4.12546Z"/><path class="cls-4" d="M1036.76176,136.05454h1.00722c.012-.18935.03384-.37576.03416-.5622q.00542-3.17247.00534-6.345c.0009-.98041.12394-1.16218,1.04647-1.52082,0-1.27075-.0027-2.5558.00088-3.84083.00266-.95455.35506-1.31963,1.2837-1.32361q1.864-.008,3.72807.00044c.89265.005,1.25618.37537,1.2664,1.28.0074.654.00118,1.30816.00111,1.96225-.00006.63138,0,1.26277,0,1.94348.85217.163,1.06788.7311,1.0569,1.52866-.03118,2.26522-.01093,4.53114-.01093,6.8448h2.06557V122.51249h2.092c.00946.19633.02837.406.02841.61566q.00234,12.036.00105,24.072c-.0001,1.10815-.32615,1.43068-1.44448,1.43078q-11.64184.001-23.2837,0c-1.11893-.00009-1.43823-.31835-1.43846-1.4336q-.0024-12.03566-.00329-24.0713c0-.19306,0-.38612,0-.62328h2.07512v13.5169h2.11463v-1.27427c0-1.85334.02149-3.70705-.01-5.55985-.01349-.7926.1834-1.37549,1.05531-1.53032,0-1.30525,0-2.569,0-3.83265,0-.99076.35034-1.35722,1.31749-1.36073,1.24268-.0045,2.48542-.00718,3.72806.00115.85014.0057,1.2288.38824,1.2339,1.245.00765,1.286.002,2.57215.002,3.93865,1.00536.16542,1.07235.90084,1.05767,1.752-.0342,1.98354-.01071,3.96808-.0106,5.95222C1036.76177,135.56442,1036.76176,135.778,1036.76176,136.05454Zm-8.37331,10.46762c0-2.06319-.00474-4.06483.00222-6.06643.003-.85956.37825-1.24169,1.23349-1.24291q6.08262-.00864,12.16525-.00046c.88088.00106,1.24728.38447,1.25045,1.29465.00615,1.76613.00182,3.5323.00183,5.29844l0,.68045h5.19783v-8.28033h-21.89136v8.31659Zm2.142-16.70664v6.22226h4.102v-6.22226Zm13.51261,6.22508v-6.20029h-4.10716v6.20029Zm-11.49662,5.31039h-2.0143v5.15179h2.0143Zm4.16995,5.15734v-5.15242h-2.01447v5.15242Zm4.18755-.00082v-5.14989h-2.016v5.14989Zm-9.32616-21.92622v3.07956h2.00213v-3.07956Zm9.40089,3.07733h2.02189V124.6048h-2.02189Z"/><path d="M1044.758,424.62812c0,3.99042.01886,7.981-.00685,11.97122a5.25388,5.25388,0,0,1-4.69888,5.0136c-.36345.03-.72916.0453-1.09384.04556q-6.62158.00452-13.24317.00067c-.36513-.00016-.73089-.00713-1.09526-.02912a2.37072,2.37072,0,0,1-2.25127-2.79957,5.20752,5.20752,0,0,0,.06134-.739q.005-9.03343.00258-18.06684c0-.10232-.00715-.20516.00068-.30686.01962-.25493-.0793-.37535-.34931-.37471q-3.31077.00786-6.62155.00144c-.27282-.00055-.3616.12286-.34585.37635.01176.1893.00237.37991.00236.56993q-.00022,8.79224.00311,17.58447c.00045.49509.07568.99021.07392,1.48517a2.35014,2.35014,0,0,1-2.05464,2.25929,7.06454,7.06454,0,0,1-.74371.03923q-6.90661.00308-13.81323.00309a5.58219,5.58219,0,0,1-3.42694-1.01252,5.12042,5.12042,0,0,1-2.16954-3.74805c-.06031-.60858-.03367-1.22649-.03414-1.84015q-.00667-8.66-.00827-17.31991c-.00036-1.40306.00485-2.80612.00722-4.20918a2.48546,2.48546,0,0,0-.00519-.3504c-.03888-.27439-.091-.5469-.1378-.82017-.24949.06184-.49828.12674-.7486.185a7.78871,7.78871,0,0,1-3.81865-.07605,4.47492,4.47492,0,0,1-3.49209-4.38779,12.06513,12.06513,0,0,1,.18626-2.30559,3.569,3.569,0,0,1,1.38287-2.22369q2.2525-1.8151,4.5314-3.59738,4.23684-3.29773,8.49264-6.57111,6.39949-4.94383,12.80023-9.886c1.144-.88457,2.27285-1.78874,3.41649-2.67379a5.38087,5.38087,0,0,1,6.80552.029q2.90411,2.26281,5.81307,4.51939c.307.23853.33607.22485.39787-.17706a3.76954,3.76954,0,0,1,3.74333-3.23153q2.5869-.03,5.17438-.00024a3.79379,3.79379,0,0,1,3.73343,3.77081q.01628,4.58243-.00566,9.16492a.98656.98656,0,0,0,.43543.87388c3.2762,2.54624,6.53776,5.11133,9.816,7.655a3.67277,3.67277,0,0,1,1.39282,2.11028,8.21787,8.21787,0,0,1,.24435,3.25529,4.12734,4.12734,0,0,1-2.607,3.322,7.27377,7.27377,0,0,1-4.11349.54794,5.55544,5.55544,0,0,1-1.36776-.54023c-.20664-.0983-.25569-.07722-.25.13746.00308.11679-.00333.2338-.00334.35071q-.00033,6.00762-.00018,12.01524Zm-2.4029-.53862q0-6.09549,0-12.191a2.91133,2.91133,0,0,0-1.25336-2.47315c-2.42814-1.80258-4.83991-3.62719-7.2606-5.43982q-6.63107-4.96539-13.26579-9.9259a2.81533,2.81533,0,0,0-3.53733-.02089c-.48639.34957-.962.71426-1.44128,1.07362q-4.66458,3.49707-9.329,6.9944-4.91187,3.6777-9.82733,7.35061a2.85286,2.85286,0,0,0-1.16463,2.8065,11.04391,11.04391,0,0,1,.09,1.26172c.00869,2.17784.0036,4.35574.00365,6.53362q.00021,8.06891-.00193,16.1378a2.95663,2.95663,0,0,0,.65624,1.95063,2.79436,2.79436,0,0,0,2.25595,1.06827q6.8631.00287,13.7262.00329c.70318.00014.70213,0,.7021-.702q-.00043-9.80129.00008-19.60258a1.81547,1.81547,0,0,1,1.99631-1.97909q4.05647-.00155,8.11294.0007a1.83471,1.83471,0,0,1,2.02248,2.04322q.00062,9.16544.00016,18.33086c0,.48236.00645.96484-.00277,1.447-.00877.45858-.01607.46064.447.46072q7.01634.00117,14.03267-.00041a2.88605,2.88605,0,0,0,3.03769-3.06836Q1042.357,430.11938,1042.35506,424.0895Zm-3.57648-33.08223h.00735c0-1.68087.00707-3.36177-.00255-5.04258-.00614-1.07351-.49636-1.55645-1.55571-1.55825q-2.36781-.004-4.73565.00171a1.35987,1.35987,0,0,0-1.52613,1.54639c-.003,1.34468-.00058,2.68937-.00091,4.03406a1.25518,1.25518,0,0,1-.01409.34793.22012.22012,0,0,1-.19439.09977.90277.90277,0,0,1-.24649-.17712q-2.13-1.65209-4.25986-3.30429c-1.75481-1.36021-3.52719-2.69846-5.25988-4.08627a2.972,2.972,0,0,0-4.03272-.0459q-1.00827.80921-2.0343,1.59625c-1.608,1.23892-3.22478,2.46659-4.82909,3.71031-1.40817,1.09167-2.79741,2.20777-4.20722,3.29729-2.04409,1.57968-4.10283,3.1404-6.14855,4.718q-3.314,2.55564-6.61442,5.12878c-1.72725,1.348-3.44141,2.7127-5.16413,4.06648a1.845,1.845,0,0,0-.72885,1.29967c-.02549.2323-.08072.46347-.084.6957a2.50957,2.50957,0,0,0,1.105,2.54231,3.91327,3.91327,0,0,0,1.33271.37675,3.58882,3.58882,0,0,0,2.94142-.84548c3.02518-2.46115,6.14423-4.80686,9.22556-7.199q5.83338-4.52869,11.66416-9.06076,2.04179-1.58642,4.08229-3.17448a2.1243,2.1243,0,0,1,2.77907-.08255q3.38245,2.60964,6.75595,5.2309,3.34082,2.59333,6.67649,5.1933,3.54783,2.75509,7.1,5.50454c1.78936,1.38718,3.57363,2.781,5.37425,4.15342a1.72513,1.72513,0,0,0,.79272.31258,5.43351,5.43351,0,0,0,2.369-.30781,1.91819,1.91819,0,0,0,1.35582-1.52568,4.71355,4.71355,0,0,0-.35843-2.69458,1.035,1.035,0,0,0-.33825-.39134q-2.73488-2.15807-5.47939-4.30389-2.7118-2.11722-5.43739-4.21672a.71306.71306,0,0,1-.313-.626C1038.78211,394.48286,1038.77858,392.74506,1038.77858,391.00727Z"/><path class="cls-5" d="M248.22844,165.44887a45.215,45.215,0,0,1,6.74085,1.016"/><path class="cls-6" d="M267.82793,170.6725c20.25348,8.975,47.98514,33.26208,40.83646,98.76831-7.46167,68.3739,7.87744,103.25781,18.49222,118.60669"/><path class="cls-5" d="M331.28435,393.41017a33.24187,33.24187,0,0,0,4.85089,4.78247"/><path class="cls-7" d="M501.06515,400.70422s127.25556,30.13948,83.72076-71.16265c-23.65751-55.04922,81.20914-46.04641,81.20914-46.04641"/></g></svg>