<svg width="48" height="48" viewBox="0 0 186 186" fill="none" xmlns="http://www.w3.org/2000/svg">
<path d="M93 0C41.6175 0 0 41.6175 0 93C0 144.383 41.6175 186 93 186C144.383 186 186 144.383 186 93C186 41.6175 144.383 0 93 0ZM93 27.9C108.392 27.9 120.9 40.4085 120.9 55.8C120.9 71.238 108.392 83.7 93 83.7C77.6085 83.7 65.1 71.238 65.1 55.8C65.1 40.4085 77.6085 27.9 93 27.9ZM93 159.96C69.7035 159.96 49.2435 148.056 37.2 130.014C37.4325 111.553 74.4465 101.37 93 101.37C111.554 101.37 148.521 111.553 148.8 130.014C136.757 148.056 116.297 159.96 93 159.96Z" fill="rgb(151, 151, 151)"/>
</svg>
