<svg width="20" height="20" viewBox="0 0 186 169" fill="none" xmlns="http://www.w3.org/2000/svg">
<path d="M0 169H33.8182V67.6H0V169ZM186 76.05C186 66.7127 178.433 59.15 169.091 59.15H115.7L123.775 20.5335C123.944 19.6885 124.07 18.8012 124.07 17.8717C124.07 14.365 122.633 11.1963 120.35 8.91475L111.346 0L55.6732 55.6432C52.6295 58.7275 50.7273 62.9525 50.7273 67.6V152.1C50.7273 161.437 58.2941 169 67.6364 169H143.727C150.745 169 156.747 164.733 159.284 158.691L184.774 99.1185C185.535 97.175 186 95.1047 186 92.95V76.7682L185.915 76.6837L186 76.05Z" fill="rgb(199, 199, 199)"/>
</svg>
